<svg width="64" height="64" viewBox="0 0 64 64" fill="none" xmlns="http://www.w3.org/2000/svg">
<path d="M60.3097 12.8315C60.3097 12.8315 60.285 12.7947 60.2727 12.7763C60.2543 12.7518 60.2419 12.7211 60.2235 12.7027C60.2112 12.6904 60.1927 12.6904 60.1804 12.6843C60.1619 12.6659 60.1496 12.6414 60.1249 12.6291L41.0062 1.22949C40.8461 1.13751 40.6491 1.13751 40.489 1.22949L35.6616 4.12386C35.6616 4.12386 35.6061 4.12385 35.5815 4.14225C35.5261 4.17291 35.4891 4.22197 35.4522 4.27103C35.4399 4.28329 35.4276 4.28942 35.4153 4.30782C35.4029 4.32622 35.3906 4.33848 35.3783 4.35074C35.3598 4.38754 35.3598 4.43046 35.3475 4.47339C35.3414 4.50405 35.3167 4.52244 35.3167 4.5531C35.3167 4.55924 35.3167 4.5715 35.3167 4.57763C35.3167 4.5899 35.3106 4.59603 35.3106 4.60216V11.5437C32.0472 7.12247 28.796 2.99554 23.7039 0.0705139C23.5315 -0.0337324 23.3159 -0.0214686 23.1559 0.101174L18.4393 3.59649C18.4085 3.62102 18.39 3.65781 18.3654 3.68847C18.3408 3.713 18.3161 3.73753 18.2977 3.76819C18.273 3.81112 18.2669 3.86017 18.2607 3.91536C18.2607 3.94602 18.2361 3.97055 18.2361 4.00121V22.7165C18.4885 22.7042 18.741 22.6797 18.9996 22.6797C19.0797 22.6797 19.1597 22.692 19.2397 22.692V4.89037C19.289 4.92103 19.3321 4.94556 19.3814 4.97622C19.9663 5.34415 20.539 5.73661 21.0993 6.15972C21.204 6.23944 21.3025 6.31916 21.401 6.39888C21.9798 6.84652 22.5524 7.3187 23.1128 7.8338C26.0498 10.5197 28.3281 13.6348 30.7356 16.94L30.828 17.0688C31.2405 17.6329 31.6592 18.2094 32.0903 18.7858C32.2319 18.9698 32.3797 19.1599 32.5151 19.3499C32.8168 19.7485 33.1124 20.1471 33.4264 20.5457C33.5927 20.7542 33.7712 20.9688 33.9375 21.1773C34.2392 21.5575 34.5348 21.9316 34.8488 22.3056C35.0397 22.5325 35.2429 22.7533 35.4399 22.9802C35.7539 23.3358 36.0556 23.6976 36.382 24.0533C36.5975 24.2863 36.8315 24.5071 37.0531 24.734C37.3856 25.0774 37.712 25.4208 38.0568 25.7519C38.2969 25.9788 38.5617 26.1995 38.808 26.4264C39.1651 26.7514 39.5161 27.0764 39.8917 27.383C40.1626 27.6038 40.452 27.8123 40.7291 28.0269C41.117 28.3274 41.4988 28.634 41.9052 28.9222C42.2069 29.1307 42.5332 29.3269 42.8473 29.5293C43.229 29.7807 43.5985 30.0383 43.9987 30.2713V62.4711L25.0216 51.5559C24.6275 51.7276 24.2272 51.8748 23.8147 52.0097L44.2511 63.7589H44.2635C44.2635 63.7589 44.2696 63.765 44.2758 63.7711C44.3497 63.8079 44.4236 63.8263 44.4974 63.8263C44.5836 63.8263 44.6698 63.8018 44.7499 63.7589C44.7622 63.7589 44.7622 63.7405 44.7745 63.7343C44.7807 63.7343 44.793 63.7343 44.7992 63.7282L49.528 60.2329C49.6574 60.1409 49.7312 59.9876 49.7312 59.8343V57.6574L54.6633 60.607L54.6756 60.5824C54.7495 60.6254 54.8357 60.6437 54.9158 60.6437C54.9958 60.6437 55.0882 60.6254 55.1621 60.5824L59.9279 57.7371C59.9772 57.731 60.0326 57.7126 60.0818 57.6881C60.2481 57.6022 60.3528 57.4305 60.3528 57.2465V13.0706C60.3528 12.9909 60.322 12.9112 60.285 12.8376L60.3097 12.8315ZM45.0208 62.3485V30.2406L48.7461 27.4873V59.5952L45.0208 62.3485ZM19.6461 3.95216L23.4945 1.10071C28.6606 4.16678 31.8994 8.57579 35.3291 13.2423L35.5692 13.5673C38.7895 17.9702 42.4286 22.9372 48.3458 26.5429L44.4851 29.3944C38.5371 25.8868 34.8796 20.8952 31.6469 16.474L31.5546 16.3452C29.1162 13.0032 26.8134 9.84514 23.8024 7.09181C22.4724 5.87151 21.1054 4.83518 19.6523 3.94602L19.6461 3.95216ZM54.9343 15.4254L36.7945 4.60829L40.7476 2.24129L58.8935 13.0584L54.9343 15.4254ZM47.5084 12.157L54.4355 16.2839V59.2763L49.7436 56.48V26.4939C49.7436 26.4939 49.7436 26.4878 49.7436 26.4816V26.4694C49.7312 26.3038 49.6389 26.1505 49.4973 26.0646C43.3706 22.5387 39.6516 17.4613 36.3758 12.9787L36.3204 12.9051V5.48519L47.5084 12.157ZM55.4392 59.2763V16.29L59.109 14.0947L59.3799 13.9353V56.9277L55.4392 59.2824V59.2763Z" fill="black"/>
<path d="M24.8536 51.71C30.1495 49.3663 33.867 44.005 33.867 37.7779C33.867 29.4792 27.273 22.7202 19.125 22.5904C19.0458 22.5904 18.9666 22.578 18.8874 22.578C18.6314 22.578 18.3815 22.6028 18.1317 22.6151C10.2213 23.0171 3.90771 29.6523 3.90771 37.7717C3.90771 45.891 10.6297 52.9715 18.8874 52.9715C20.5572 52.9715 22.16 52.6809 23.6652 52.1676C24.0675 52.0316 24.4697 51.877 24.8597 51.71H24.8536ZM18.8874 51.9759C11.1721 51.9759 4.90108 45.6066 4.90108 37.784C4.90108 29.9615 11.1781 23.5922 18.8874 23.5922C26.5966 23.5922 32.8736 29.9615 32.8736 37.784C32.8736 45.6066 26.5966 51.9759 18.8874 51.9759Z" fill="black"/>
<path d="M13.5356 35.5177C13.6984 35.5177 13.8611 35.4362 13.9612 35.292C14.199 34.9347 14.4869 34.615 14.7998 34.3141C15.2817 34.941 16.1141 35.5992 17.0215 35.8813C17.3532 35.9878 17.6849 36.038 18.0041 36.038C18.6299 36.038 19.2182 35.8374 19.7501 35.4487C21.8091 33.9254 23.4488 34.9848 23.5176 35.0287C23.6866 35.1478 23.9119 35.1478 24.0809 35.035C24.2561 34.9222 24.3437 34.7153 24.3062 34.5147C23.6428 30.9415 21.1645 29.3931 19.068 29.1361C17.0403 28.8791 15.1628 29.7379 14.4932 31.2048C14.3743 31.4618 14.4932 31.7627 14.7435 31.8818C15.0001 32.0009 15.3005 31.8881 15.4194 31.6311C15.9075 30.5654 17.3595 29.9573 18.9428 30.1454C19.7126 30.2394 22.1033 30.7723 23.067 33.7436C22.1596 33.4992 20.739 33.4553 19.1493 34.6275C18.6174 35.0225 18.0041 35.1165 17.3282 34.9034C16.5396 34.6589 15.9075 34.0884 15.5946 33.6684C16.3268 33.1795 17.1529 32.8535 18.0166 32.7344C18.292 32.6968 18.486 32.4397 18.4484 32.1576C18.4109 31.8818 18.1418 31.6875 17.8726 31.7251C16.6836 31.8881 15.5508 32.3708 14.6058 33.1105C14.5996 33.1105 14.5933 33.123 14.587 33.1293C14.587 33.1293 14.5745 33.1418 14.5683 33.1418C13.9988 33.5932 13.5106 34.1198 13.1101 34.7216C12.9536 34.9535 13.0225 35.2732 13.254 35.4299C13.3416 35.4863 13.4355 35.5114 13.5356 35.5114V35.5177Z" fill="black"/>
<path d="M14.4557 41.8665C14.2829 41.6538 13.9681 41.6113 13.7521 41.7814C13.5361 41.9515 13.4929 42.2613 13.6657 42.4739C14.394 43.3912 15.3569 44.108 16.4617 44.5454C17.1406 44.8127 17.8504 44.9767 18.5726 45.0192H18.6034C18.8688 45.0192 19.0849 44.8187 19.1034 44.5575C19.1219 44.2842 18.912 44.0533 18.6343 44.0351C18.2084 44.0108 17.7949 43.9197 17.3875 43.8043C17.6899 43.0996 17.8381 42.0791 17.6282 41.18C17.406 40.202 16.8135 39.4791 15.9124 39.0964C13.5916 38.1002 13.6904 36.2109 13.6966 36.138C13.7151 35.9376 13.604 35.7493 13.425 35.6581C13.246 35.567 13.0238 35.5913 12.8695 35.725C10.1537 38.0151 10.055 40.8459 10.8635 42.7351C11.6042 44.4543 13.1164 45.5902 14.6162 45.5902C14.7088 45.5902 14.7952 45.5902 14.8878 45.5781C15.1655 45.5538 15.363 45.3108 15.3384 45.0374C15.3137 44.7702 15.0668 44.5697 14.789 44.594C13.6472 44.6973 12.4004 43.78 11.7832 42.3524C11.4869 41.6599 10.7586 39.388 12.8201 37.1404C13.0608 38.0212 13.7213 39.2361 15.505 40.0076C16.1037 40.2627 16.4864 40.7366 16.6407 41.4048C16.8197 42.1884 16.6407 42.9963 16.437 43.458C15.6593 43.0814 14.9742 42.5468 14.4434 41.8786L14.4557 41.8665Z" fill="black"/>
<path d="M26.4765 38.1094C26.2451 38.2636 26.1951 38.5661 26.3577 38.7796C27.0391 39.6872 26.8391 41.1641 25.8763 42.3801C24.6884 43.8748 22.8066 44.4739 20.7122 44.0587C21.3749 43.43 22.1251 42.2852 21.9001 40.4286C21.825 39.8058 22.0501 39.2541 22.569 38.8034C23.1754 38.2754 23.982 38.0263 24.5009 37.967C24.5571 38.7974 24.4321 39.6278 24.1007 40.3989C23.9945 40.6421 24.1195 40.9268 24.3821 41.0277C24.4446 41.0514 24.5071 41.0633 24.5759 41.0633C24.7759 41.0633 24.9635 40.9506 25.0448 40.7608C25.4949 39.7109 25.645 38.5542 25.4762 37.4213C25.4762 37.4154 25.4762 37.4035 25.4762 37.3976C25.4762 37.3976 25.4762 37.3857 25.4762 37.3798C25.3699 36.7036 25.1573 36.0452 24.8385 35.4342C24.7134 35.197 24.4071 35.1021 24.157 35.2207C23.9069 35.3393 23.8069 35.63 23.9319 35.8672C24.1257 36.235 24.257 36.6205 24.3571 37.018C23.5756 37.1129 22.5878 37.4865 21.8938 38.0975C21.1373 38.7618 20.7935 39.61 20.906 40.5413C21.1936 42.9554 19.4618 43.7977 19.393 43.8333C19.2055 43.9164 19.0929 44.1002 19.1054 44.296C19.1179 44.4917 19.2492 44.6578 19.443 44.723C20.3496 45.0256 21.1936 45.156 21.9751 45.156C24.132 45.156 25.77 44.1418 26.7078 42.9673C27.9332 41.4251 28.1395 39.4795 27.208 38.2339C27.0454 38.0204 26.7328 37.967 26.5015 38.1212L26.4765 38.1094Z" fill="black"/>
</svg>
